<svg id="Layer_1" xmlns="http://www.w3.org/2000/svg" viewBox="0 0 420 240">
  <style>
    .st0,.st1,.st2{fill:none;stroke:#F5F3EF;stroke-width:6.75;stroke-linecap:round;stroke-miterlimit:10}.st1,.st2{stroke-linejoin:round}.st2{stroke-width:13.5}
  </style>
  <path d="M0 0h420v240H0z" style="animation:OXkLeKzl_draw_0 975ms ease-in-out 0ms infinite,OXkLeKzl_fade 975ms linear 0ms infinite" stroke-dasharray="1320 1322" stroke-dashoffset="1321"/>
  <path class="st0" d="M251.7 65l-.8-1.8s4.2-.7 2.9-2.2-5.6-5.1-5.6-5.1" style="animation:OXkLeKzl_draw_1 975ms ease-in-out 0ms infinite,OXkLeKzl_fade 975ms linear 0ms infinite" stroke-dasharray="14 16" stroke-dashoffset="15"/>
  <path class="st0" d="M281.1 139.8l-21-56.6-3.8-2.5" style="animation:OXkLeKzl_draw_2 975ms ease-in-out 0ms infinite,OXkLeKzl_fade 975ms linear 0ms infinite" stroke-dasharray="65 67" stroke-dashoffset="66"/>
  <path class="st0" d="M174 62.3l26.9 78.8-12.3-36L252 68.3l3.2 9.3-14.8 7.1-32.8 52.6-7.9 4.5" style="animation:OXkLeKzl_draw_4 975ms ease-in-out 0ms infinite,OXkLeKzl_fade 975ms linear 0ms infinite" stroke-dasharray="292 294" stroke-dashoffset="293"/>
  <path class="st0" d="M159.9 60.5s4.7 4.3 12.9 2.1c8.2-2.2 14.8-3.6 18.4-2.1" style="animation:OXkLeKzl_draw_5 975ms ease-in-out 0ms infinite,OXkLeKzl_fade 975ms linear 0ms infinite" stroke-dasharray="33 35" stroke-dashoffset="34"/>
  <path class="st1" d="M191.1 113.9l-51.4 27.4 58.7.5" style="animation:OXkLeKzl_draw_6 975ms ease-in-out 0ms infinite,OXkLeKzl_fade 975ms linear 0ms infinite" stroke-dasharray="117 119" stroke-dashoffset="118"/>
  <path class="st2" d="M100.7 141.8a37.7 37.7 0 1 1 75.4 0 37.7 37.7 0 1 1-75.4 0" style="animation:OXkLeKzl_draw_7 975ms ease-in-out 0ms infinite,OXkLeKzl_fade 975ms linear 0ms infinite" stroke-dasharray="237 239" stroke-dashoffset="238"/>
  <path class="st2" d="M243.9 141.8a37.7 37.7 0 1 1 75.4 0 37.7 37.7 0 1 1-75.4 0" style="animation:OXkLeKzl_draw_8 975ms ease-in-out 0ms infinite,OXkLeKzl_fade 975ms linear 0ms infinite" stroke-dasharray="238 240" stroke-dashoffset="239"/>
  <path d="M193.4 143.4a6 6 0 1 1 12 0 6 6 0 1 1-12 0" style="animation:OXkLeKzl_draw_9 975ms ease-in-out 0ms infinite,OXkLeKzl_fade 975ms linear 0ms infinite" stroke-dasharray="38 40" stroke-dashoffset="39" fill="none" stroke="#F5F3EF" stroke-width="9" stroke-linecap="round" stroke-linejoin="round" stroke-miterlimit="10"/>
  <path class="st1" d="M198.7 144.4l19.1 2.7" style="animation:OXkLeKzl_draw_10 975ms ease-in-out 0ms infinite,OXkLeKzl_fade 975ms linear 0ms infinite" stroke-dasharray="20 22" stroke-dashoffset="21"/>
  <style data-made-with="vivus-instant">
    @keyframes OXkLeKzl_draw{to{stroke-dashoffset:0}}@keyframes OXkLeKzl_fade{0%,92.3076923076923%{stroke-opacity:1}to{stroke-opacity:0}}@keyframes OXkLeKzl_draw_0{0%{stroke-dashoffset:1321}41.02564102564102%,to{stroke-dashoffset:0}}@keyframes OXkLeKzl_draw_1{0%{stroke-dashoffset:15}41.02564102564102%,to{stroke-dashoffset:0}}@keyframes OXkLeKzl_draw_2{0%{stroke-dashoffset:66}41.02564102564102%,to{stroke-dashoffset:0}}@keyframes OXkLeKzl_draw_3{0%{stroke-dashoffset:1}41.02564102564102%,to{stroke-dashoffset:0}}@keyframes OXkLeKzl_draw_4{0%{stroke-dashoffset:293}41.02564102564102%,to{stroke-dashoffset:0}}@keyframes OXkLeKzl_draw_5{0%{stroke-dashoffset:34}41.02564102564102%,to{stroke-dashoffset:0}}@keyframes OXkLeKzl_draw_6{0%{stroke-dashoffset:118}41.02564102564102%,to{stroke-dashoffset:0}}@keyframes OXkLeKzl_draw_7{0%{stroke-dashoffset:238}41.02564102564102%,to{stroke-dashoffset:0}}@keyframes OXkLeKzl_draw_8{0%{stroke-dashoffset:239}41.02564102564102%,to{stroke-dashoffset:0}}@keyframes OXkLeKzl_draw_9{0%{stroke-dashoffset:39}41.02564102564102%,to{stroke-dashoffset:0}}@keyframes OXkLeKzl_draw_10{0%{stroke-dashoffset:21}41.02564102564102%,to{stroke-dashoffset:0}}
  </style>
</svg>
